<mxfile host="65bd71144e">
    <diagram id="C5RBs43oDa-KdzZeNtuy" name="Page-1">
        <mxGraphModel dx="874" dy="1012" grid="1" gridSize="10" guides="1" tooltips="1" connect="1" arrows="1" fold="1" page="1" pageScale="1" pageWidth="827" pageHeight="1169" math="0" shadow="0">
            <root>
                <mxCell id="WIyWlLk6GJQsqaUBKTNV-0"/>
                <mxCell id="WIyWlLk6GJQsqaUBKTNV-1" parent="WIyWlLk6GJQsqaUBKTNV-0"/>
                <mxCell id="-BQQGJLSlea04yl4FD3H-27" style="edgeStyle=orthogonalEdgeStyle;rounded=0;jumpSize=6;orthogonalLoop=1;jettySize=auto;html=1;exitX=1;exitY=0.5;exitDx=0;exitDy=0;" parent="WIyWlLk6GJQsqaUBKTNV-1" source="-BQQGJLSlea04yl4FD3H-26" edge="1">
                    <mxGeometry relative="1" as="geometry">
                        <mxPoint x="389" y="150" as="targetPoint"/>
                    </mxGeometry>
                </mxCell>
                <mxCell id="-BQQGJLSlea04yl4FD3H-28" value="postMessage" style="edgeLabel;html=1;align=center;verticalAlign=middle;resizable=0;points=[];" parent="-BQQGJLSlea04yl4FD3H-27" vertex="1" connectable="0">
                    <mxGeometry x="-0.0947" y="-2" relative="1" as="geometry">
                        <mxPoint as="offset"/>
                    </mxGeometry>
                </mxCell>
                <mxCell id="-BQQGJLSlea04yl4FD3H-26" value="Event Emitter" style="rounded=1;whiteSpace=wrap;html=1;fontSize=12;glass=0;strokeWidth=1;shadow=0;" parent="WIyWlLk6GJQsqaUBKTNV-1" vertex="1">
                    <mxGeometry x="79" y="130" width="120" height="40" as="geometry"/>
                </mxCell>
                <mxCell id="-BQQGJLSlea04yl4FD3H-29" style="edgeStyle=orthogonalEdgeStyle;rounded=0;jumpSize=6;orthogonalLoop=1;jettySize=auto;html=1;exitX=1;exitY=0.5;exitDx=0;exitDy=0;startArrow=classic;startFill=1;endArrow=none;endFill=0;" parent="WIyWlLk6GJQsqaUBKTNV-1" source="-BQQGJLSlea04yl4FD3H-31" edge="1">
                    <mxGeometry relative="1" as="geometry">
                        <mxPoint x="389" y="250" as="targetPoint"/>
                    </mxGeometry>
                </mxCell>
                <mxCell id="-BQQGJLSlea04yl4FD3H-30" value="onmessage" style="edgeLabel;html=1;align=center;verticalAlign=middle;resizable=0;points=[];" parent="-BQQGJLSlea04yl4FD3H-29" vertex="1" connectable="0">
                    <mxGeometry x="-0.0947" y="-2" relative="1" as="geometry">
                        <mxPoint as="offset"/>
                    </mxGeometry>
                </mxCell>
                <mxCell id="-BQQGJLSlea04yl4FD3H-31" value="Event Receiver" style="rounded=1;whiteSpace=wrap;html=1;fontSize=12;glass=0;strokeWidth=1;shadow=0;" parent="WIyWlLk6GJQsqaUBKTNV-1" vertex="1">
                    <mxGeometry x="79" y="230" width="120" height="40" as="geometry"/>
                </mxCell>
                <mxCell id="-BQQGJLSlea04yl4FD3H-36" style="edgeStyle=orthogonalEdgeStyle;rounded=0;jumpSize=6;orthogonalLoop=1;jettySize=auto;html=1;exitX=0;exitY=0.5;exitDx=0;exitDy=0;" parent="WIyWlLk6GJQsqaUBKTNV-1" source="-BQQGJLSlea04yl4FD3H-35" edge="1">
                    <mxGeometry relative="1" as="geometry">
                        <mxPoint x="419" y="250" as="targetPoint"/>
                    </mxGeometry>
                </mxCell>
                <mxCell id="-BQQGJLSlea04yl4FD3H-40" value="postMessage" style="edgeLabel;html=1;align=center;verticalAlign=middle;resizable=0;points=[];" parent="-BQQGJLSlea04yl4FD3H-36" vertex="1" connectable="0">
                    <mxGeometry x="-0.1684" y="-4" relative="1" as="geometry">
                        <mxPoint as="offset"/>
                    </mxGeometry>
                </mxCell>
                <mxCell id="-BQQGJLSlea04yl4FD3H-35" value="Event Emitter" style="rounded=1;whiteSpace=wrap;html=1;fontSize=12;glass=0;strokeWidth=1;shadow=0;" parent="WIyWlLk6GJQsqaUBKTNV-1" vertex="1">
                    <mxGeometry x="609" y="230" width="120" height="40" as="geometry"/>
                </mxCell>
                <mxCell id="-BQQGJLSlea04yl4FD3H-37" style="edgeStyle=orthogonalEdgeStyle;rounded=0;jumpSize=6;orthogonalLoop=1;jettySize=auto;html=1;exitX=0;exitY=0.5;exitDx=0;exitDy=0;startArrow=classic;startFill=1;endArrow=none;endFill=0;" parent="WIyWlLk6GJQsqaUBKTNV-1" source="-BQQGJLSlea04yl4FD3H-38" edge="1">
                    <mxGeometry relative="1" as="geometry">
                        <mxPoint x="419" y="150" as="targetPoint"/>
                    </mxGeometry>
                </mxCell>
                <mxCell id="-BQQGJLSlea04yl4FD3H-39" value="onmessage" style="edgeLabel;html=1;align=center;verticalAlign=middle;resizable=0;points=[];" parent="-BQQGJLSlea04yl4FD3H-37" vertex="1" connectable="0">
                    <mxGeometry x="-0.1263" y="-3" relative="1" as="geometry">
                        <mxPoint as="offset"/>
                    </mxGeometry>
                </mxCell>
                <mxCell id="-BQQGJLSlea04yl4FD3H-38" value="Event Receiver" style="rounded=1;whiteSpace=wrap;html=1;fontSize=12;glass=0;strokeWidth=1;shadow=0;" parent="WIyWlLk6GJQsqaUBKTNV-1" vertex="1">
                    <mxGeometry x="609" y="130" width="120" height="40" as="geometry"/>
                </mxCell>
                <mxCell id="-BQQGJLSlea04yl4FD3H-42" value="Parent document" style="swimlane;" parent="WIyWlLk6GJQsqaUBKTNV-1" vertex="1">
                    <mxGeometry x="39" y="90" width="200" height="200" as="geometry"/>
                </mxCell>
                <mxCell id="-BQQGJLSlea04yl4FD3H-43" value="Embedded document" style="swimlane;" parent="WIyWlLk6GJQsqaUBKTNV-1" vertex="1">
                    <mxGeometry x="569" y="90" width="200" height="200" as="geometry"/>
                </mxCell>
                <mxCell id="-BQQGJLSlea04yl4FD3H-44" value="&lt;h1&gt;Event flow&lt;/h1&gt;&lt;p&gt;2-way events&lt;/p&gt;" style="text;html=1;strokeColor=none;fillColor=none;spacing=5;spacingTop=-20;whiteSpace=wrap;overflow=hidden;rounded=0;" parent="WIyWlLk6GJQsqaUBKTNV-1" vertex="1">
                    <mxGeometry x="39" y="10" width="190" height="80" as="geometry"/>
                </mxCell>
                <mxCell id="-BQQGJLSlea04yl4FD3H-45" value="" style="endArrow=none;dashed=1;html=1;rounded=0;jumpSize=6;strokeWidth=8;strokeColor=#C9C9C9;" parent="WIyWlLk6GJQsqaUBKTNV-1" edge="1">
                    <mxGeometry width="50" height="50" relative="1" as="geometry">
                        <mxPoint x="407" y="330" as="sourcePoint"/>
                        <mxPoint x="407" y="50" as="targetPoint"/>
                    </mxGeometry>
                </mxCell>
            </root>
        </mxGraphModel>
    </diagram>
</mxfile>